<?xml version="1.0" encoding="iso-8859-1"?>
<!-- Generator: Adobe Illustrator 15.1.0, SVG Export Plug-In . SVG Version: 6.00 Build 0)  -->
<!DOCTYPE svg PUBLIC "-//W3C//DTD SVG 1.1//EN" "http://www.w3.org/Graphics/SVG/1.1/DTD/svg11.dtd">
<svg version="1.1" id="&#x30EC;&#x30A4;&#x30E4;&#x30FC;_1"
	 xmlns="http://www.w3.org/2000/svg" xmlns:xlink="http://www.w3.org/1999/xlink" x="0px" y="0px" width="630px" height="121.25px"
	 viewBox="-3.8 -7.3 630 121.25" style="enable-background:new -3.8 -7.3 630 121.25;" xml:space="preserve">
<g>
	<path style="fill:none;stroke:#231815;stroke-width:6;stroke-miterlimit:10;" d="M263.749,32.95h-68.7
		c-12.8,0-23.2,10.4-23.2,23.201l0,0c0,12.799,10.4,23.199,23.2,23.199h40.2c4.5,0,8.1,3.6,8.1,8.1v0.4c0,4.5-3.6,8.1-8.1,8.1h-63.4
		v15h68.6c12.8,0,23.199-10.398,23.199-23.199V87.45c0-12.799-10.399-23.199-23.199-23.199h-38.7c-4.5,0-8.1-3.6-8.1-8.1l0,0
		c0-4.5,3.6-8.1,8.1-8.1h62.101L263.749,32.95L263.749,32.95z"/>
	<path style="fill:none;stroke:#231815;stroke-width:6;stroke-miterlimit:10;" d="M317.949,48.051v62.899h-18.7V48.051h-31.5V32.95
		h81.7v15.101H317.949L317.949,48.051z"/>
	<path style="fill:none;stroke:#231815;stroke-width:6;stroke-miterlimit:10;" d="M390.249,55.052l-11.8,27.299l15.1,0.201
		L375.35,89.45l-9.301,21.5h-18l36-78h12.301l36.301,78H414.35L390.249,55.052"/>
	<polyline style="fill:none;stroke:#231815;stroke-width:6;stroke-miterlimit:10;" points="438.049,110.85 438.049,32.95 
		452.049,32.95 509.849,90.45 509.849,55.052 523.949,55.052 523.949,110.85 509.849,110.85 452.049,53.351 452.049,110.85 	"/>
	<path style="fill:none;stroke:#231815;stroke-width:6;stroke-miterlimit:10;" d="M509.849,32.95h72.2c21.3,0,38.602,17.5,38.602,39
		l0,0c0,21.5-17.302,39-38.602,39h-50.399V55.052h14.899V95.85h35.5c13.102,0,23.7-10.699,23.7-23.9l0,0
		c0-13.199-10.6-23.898-23.7-23.898h-72.2V32.95L509.849,32.95z"/>
</g>
<g>
	<path style="fill:none;stroke:#221714;stroke-width:6;stroke-miterlimit:10;" d="M134.649,110.85h-13c-5.9,0-11.2-3.602-13.3-9.102
		l-30.8-79.798c-1.9-4.898-6.6-8.1-11.8-8.1h-25.6c-6.4,0-12.6,2.8-16.7,7.7l-22.2,26.1v-19.2c0-18,14.5-32.5,32.5-32.5h39.5
		c9,0,17.2,5.5,20.6,13.8l32.2,78.2c0.7,1.801,3.3,1.801,4,0l31.4-76.299c4-9.5,13.2-15.7,23.5-15.7h5l-42,105.9
		C145.749,107.35,140.449,110.85,134.649,110.85z"/>
	<polygon style="fill:none;stroke:#221714;stroke-width:6;stroke-miterlimit:10;" points="51.249,45.25 34.749,63.151 
		76.049,63.151 76.049,45.25 	"/>
	<path style="fill:none;stroke:#221714;stroke-width:6;stroke-miterlimit:10;" d="M91.449,110.85h-74.3c-8.8,0-15.3-8.299-13.2-16.9
		l0.3-1.199h77.4L91.449,110.85z"/>
	<path style="fill:#FFEC00;" d="M1.249,53.651c0,0,17.7-22.7,23.8-28.7c5.4-5.2,10-6.1,10-6.1l-11.2,26.399h24l-43.6,47.5l15.5-39.1
		H1.249z"/>
</g>
</svg>
