<?xml version="1.0" encoding="utf-8"?>
<!-- Generator: Adobe Illustrator 15.1.0, SVG Export Plug-In . SVG Version: 6.00 Build 0)  -->
<!DOCTYPE svg PUBLIC "-//W3C//DTD SVG 1.1//EN" "http://www.w3.org/Graphics/SVG/1.1/DTD/svg11.dtd">
<svg version="1.1" id="レイヤー_1" xmlns="http://www.w3.org/2000/svg" xmlns:xlink="http://www.w3.org/1999/xlink" x="0px"
	 y="0px" width="619.4px" height="114.9px" viewBox="18 -93 619.4 114.9" enable-background="new 18 -93 619.4 114.9"
	 xml:space="preserve">
<g>
	<path fill="#231815" d="M280.5-56h-68.7c-12.8,0-23.2,10.4-23.2,23.2l0,0c0,12.8,10.4,23.2,23.2,23.2H252c4.5,0,8.1,3.6,8.1,8.1
		v0.4c0,4.5-3.6,8.1-8.1,8.1h-63.4v15h68.6C270,22,280.399,11.6,280.399-1.2v-0.3c0-12.8-10.399-23.2-23.199-23.2h-38.7
		c-4.5,0-8.1-3.6-8.1-8.1l0,0c0-4.5,3.6-8.1,8.1-8.1h62.101L280.5-56L280.5-56z"/>
	<path fill="#231815" d="M334.7-40.9V22H316V-40.9h-31.5V-56h81.7V-40.9H334.7L334.7-40.9z"/>
	<path fill="#231815" d="M407-33.9L395.2-6.6l15.1,0.2L392.101,0.5L382.8,22h-18l36-78h12.301l36.3,78h-18.3L407-33.9"/>
	<polyline fill="#231815" points="454.8,21.9 454.8,-56 468.8,-56 526.6,1.5 526.6,-33.9 540.7,-33.9 540.7,21.9 526.6,21.9 
		468.8,-35.6 468.8,21.9 	"/>
	<path fill="#231815" d="M526.6-56h72.2c21.3,0,38.601,17.5,38.601,39l0,0c0,21.5-17.301,39-38.601,39H548.4V-33.9H563.3V6.9h35.5
		c13.101,0,23.7-10.7,23.7-23.9l0,0c0-13.2-10.6-23.899-23.7-23.899h-72.2V-56L526.6-56z"/>
</g>
<g>
	<path fill="#231815" d="M151.4,21.9h-13c-5.9,0-11.2-3.601-13.3-9.101L94.3-67c-1.9-4.899-6.6-8.1-11.8-8.1H56.9
		c-6.4,0-12.6,2.8-16.7,7.7L18-41.3v-19.2C18-78.5,32.5-93,50.5-93H90c9,0,17.2,5.5,20.6,13.8L142.8-1c0.7,1.8,3.3,1.8,4,0
		l31.4-76.3c4-9.5,13.2-15.7,23.5-15.7h5l-42,105.9C162.5,18.4,157.2,21.9,151.4,21.9z"/>
	<polygon fill="#231815" points="68,-43.7 51.5,-25.8 92.8,-25.8 92.8,-43.7 	"/>
	<path fill="#231815" d="M108.2,21.9H33.9c-8.8,0-15.3-8.3-13.2-16.9L21,3.8h77.4L108.2,21.9z"/>
	<path fill="#F8B62D" d="M18-35.3c0,0,17.7-22.7,23.8-28.7c5.4-5.2,10-6.1,10-6.1L40.6-43.7h24L21,3.8l15.5-39.1H18z"/>
</g>
</svg>
